<svg
   xmlns:dc="http://purl.org/dc/elements/1.1/"
   xmlns:cc="http://creativecommons.org/ns#"
   xmlns:rdf="http://www.w3.org/1999/02/22-rdf-syntax-ns#"
   xmlns:svg="http://www.w3.org/2000/svg"
   xmlns="http://www.w3.org/2000/svg"
   version="1.1"
   width="410"
   height="430"
   preserveAspectRatio="xMinYMin meet"
   viewBox="0 0 410 430"
   id="svg4534">
  <defs
     id="defs4536" />
  <metadata
     id="metadata4539">
    <rdf:RDF>
      <cc:Work
         rdf:about="">
        <dc:format>image/svg+xml</dc:format>
        <dc:type
           rdf:resource="http://purl.org/dc/dcmitype/StillImage" />
        <dc:title></dc:title>
      </cc:Work>
    </rdf:RDF>
  </metadata>
  <g
     transform="translate(0,-622.36218)"
     id="layer1">
    <g
       transform="translate(-158.20895,585.39156)"
       id="g4419">
      <path
         d="m 366.70014,461.4121 c -96.0602,0 -198.16248,-22.54334 -198.16248,-64.31876 0,-19.50424 23.46915,-36.70913 66.22718,-48.66989 l 0,-164.52315 c 0,-75.13153 59.18505,-136.250698 131.93529,-136.250698 72.75028,0 131.93873,61.119158 131.93873,136.250698 l 0,164.52315 c 42.75116,11.96076 66.2203,29.16565 66.2203,48.66989 0,41.77893 -102.09881,64.31876 -198.15903,64.31876 l 0,0 z"
         id="path3339"
         style="fill:#ec370f;fill-opacity:1" />
      <path
         d="m 363.63026,51.68585 c 69.43852,0 125.73405,58.20575 125.73405,129.99817 l 0,169.32073 c 40.56754,10.64532 66.22376,26.35339 66.22376,43.87234 0,32.06165 -85.94516,58.06265 -191.95781,58.06265 -106.01955,0 -191.95778,-25.99746 -191.95778,-58.06265 0,-17.51895 25.64928,-33.22702 66.22026,-43.87234 l 0,-169.32073 c 0,-71.79242 56.28859,-129.99817 125.73752,-129.99817 m 0,-12.505047 c -76.17269,0 -138.13999,63.927907 -138.13999,142.503207 l 0,159.80584 c -43.3809,12.88886 -66.22027,31.25217 -66.22027,53.38724 0,15.21259 11.28821,36.76853 65.061,53.0314 37.38043,11.30826 86.85181,17.53284 139.29926,17.53284 52.44398,0 101.91539,-6.22458 139.29579,-17.53284 53.7763,-16.26635 65.06448,-37.81881 65.06448,-53.0314 0,-22.13153 -22.84283,-40.4949 -66.22369,-53.38724 l 0,-159.80584 c 0,-78.5753 -61.97083,-142.503207 -138.13658,-142.503207 l 0,0 z"
         id="path3341"
         style="fill:#000000" />
      <path
         d="m 273.21644,275.41968 c 0,0 28.06708,21.04919 71.18699,21.45849 43.11476,0.41514 84.04011,-14.57604 112.23186,-7.58622"
         id="path3347"
         style="fill:none;stroke:#1b75bb;stroke-width:14.63229752;stroke-linecap:round;stroke-linejoin:round" />
      <path
         d="m 274.25604,277.13888 c 0,0 28.06709,21.04919 71.18699,21.45849 43.11477,0.41513 84.04011,-14.57604 112.23187,-7.58623"
         id="path3349"
         style="fill:none;stroke:#ec1c24;stroke-width:9.62650585;stroke-linecap:round;stroke-linejoin:round" />
      <path
         d="m 291.53336,294.7779 c -2.28823,4.07191 -6.58604,5.99846 -9.60842,4.30684 l -13.10819,-7.37136 c -3.01818,-1.69417 -3.60503,-6.36378 -1.31508,-10.44248 l 0.82907,-1.47391 c 2.29333,-4.0778 6.59114,-6.00438 9.61268,-4.30935 l 13.10479,7.37056 c 3.02154,1.69495 3.60668,6.37136 1.31844,10.44327 l -0.83329,1.47643 z"
         id="path3351"
         style="fill:#ffffff;stroke:#000000;stroke-width:0.56146437;stroke-linecap:round;stroke-linejoin:round" />
      <path
         d="m 331.23432,303.6683 c -0.78554,4.60268 -4.19554,7.86776 -7.61031,7.29446 l -14.84371,-2.47912 c -3.41303,-0.56576 -5.54477,-4.75894 -4.75587,-9.36079 l 0.28491,-1.65918 c 0.7864,-4.6061 4.19725,-7.87458 7.61283,-7.30467 l 14.84124,2.47497 c 3.41894,0.5708 5.54726,4.76312 4.75838,9.36497 l -0.28747,1.66936 z"
         id="path3353"
         style="fill:#ffffff;stroke:#000000;stroke-width:0.56146437;stroke-linecap:round;stroke-linejoin:round" />
      <path
         d="m 372.19742,303.1292 c 0.16706,4.65906 -2.5094,8.55201 -5.97392,8.68918 l -15.05307,0.61568 c -3.46284,0.14482 -6.4002,-3.52163 -6.56301,-8.18328 l -0.0615,-1.69108 c -0.16282,-4.66165 2.51278,-8.55117 5.97567,-8.69599 l 15.05217,-0.61226 c 3.46542,-0.1406 6.40363,3.5225 6.56975,8.18491 l 0.0539,1.69284 z"
         id="path3355"
         style="fill:#ffffff;stroke:#000000;stroke-width:0.56146437;stroke-linecap:round;stroke-linejoin:round" />
      <path
         d="m 416.39744,297.12432 c 0.69489,4.61011 -1.53452,8.77572 -4.9622,9.30683 l -14.90124,2.30404 c -3.42675,0.52777 -6.75875,-2.77979 -7.44352,-7.38743 l -0.2496,-1.66939 c -0.68734,-4.61186 1.53965,-8.78164 4.96725,-9.31281 l 14.89457,-2.3057 c 3.43351,-0.52612 6.76209,2.78063 7.44939,7.39249 l 0.24535,1.67197 z"
         id="path3357"
         style="fill:#ffffff;stroke:#000000;stroke-width:0.56146437;stroke-linecap:round;stroke-linejoin:round" />
      <path
         d="m 456.49057,295.90201 c -0.0345,4.66307 -2.8776,8.43554 -6.34348,8.42133 l -15.06149,-0.0337 c -3.46669,-0.0108 -6.24775,-3.80033 -6.20568,-8.46512 l 0.0144,-1.69388 c 0.0354,-4.66636 2.8793,-8.44227 6.34513,-8.42808 l 15.0598,0.0405 c 3.46755,0.007 6.24864,3.79696 6.20487,8.46851 l -0.0135,1.69048 z"
         id="path3359"
         style="fill:#ffffff;stroke:#000000;stroke-width:0.56146437;stroke-linecap:round;stroke-linejoin:round" />
      <path
         d="m 274.08156,271.98075 c 0,0 28.41357,22.59672 71.53359,23.00587 43.11484,0.41515 83.34755,-14.74786 111.53897,-7.75813"
         id="path3361"
         style="fill:none;stroke:#231f20;stroke-width:3.850631;stroke-linecap:round;stroke-linejoin:round" />
      <path
         d="m 356.48911,385.10365 c -54.67254,0 -99.64528,-13.31457 -105.12672,-30.39389 -0.36682,1.15842 -0.56064,2.33075 -0.56064,3.51706 0,18.7262 47.31899,33.90387 105.68736,33.90387 58.36837,0 105.68041,-15.17767 105.68041,-33.90387 0,-1.18631 -0.19031,-2.35864 -0.56058,-3.51706 -5.48144,17.07584 -50.45419,30.39389 -105.11983,30.39389 z"
         id="path3363"
         style="fill:#1b75bb" />
      <circle
         cx="181.08083"
         cy="177.34842"
         r="2.2910161"
         transform="translate(136.26995,-7.7267591)"
         id="circle3365"
         style="fill:#ffffff" />
      <circle
         cx="187.24054"
         cy="183.87659"
         r="1.09375"
         transform="translate(136.26995,-7.7267591)"
         id="circle3367"
         style="fill:#ffffff" />
      <circle
         cx="268.01569"
         cy="154.6795"
         r="2.242188"
         transform="translate(136.26995,-7.7267591)"
         id="circle3369"
         style="fill:#ffffff" />
      <circle
         cx="226.40585"
         cy="159.40544"
         r="72.720703"
         transform="translate(136.26995,-7.7267591)"
         id="circle3371"
         style="fill:#ff7f00;stroke:#000000;stroke-width:5" />
      <circle
         cx="228.01883"
         cy="160.64803"
         r="38.21875"
         transform="translate(136.26995,-7.7267591)"
         id="circle3373"
         style="fill:#ffffff;stroke:#000000;stroke-width:5" />
      <circle
         cx="215.24274"
         cy="146.22575"
         r="6.8300781"
         transform="translate(136.26995,-7.7267591)"
         id="circle3375"
         style="fill:#000000;stroke:#000000;stroke-width:5" />
    </g>
  </g>
</svg>
